HIERARCHY
ROOT Hips
{
	OFFSET 0.000000 0.000000 0.000000
	CHANNELS 6 Xposition Yposition Zposition Yrotation Xrotation Zrotation
	JOINT Chest
	{
		OFFSET 0.000000 -0.009281 11.569106
		CHANNELS 3 Yrotation Xrotation Zrotation
		JOINT Chest2
		{
			OFFSET -0.000000 0.016865 9.269641
			CHANNELS 3 Yrotation Xrotation Zrotation
			JOINT Chest3
			{
				OFFSET -0.000000 0.000001 8.374491
				CHANNELS 3 Yrotation Xrotation Zrotation
				JOINT Chest4
				{
					OFFSET -0.000000 0.000001 8.374493
					CHANNELS 3 Yrotation Xrotation Zrotation
					JOINT Neck
					{
						OFFSET -0.000000 0.000002 12.152554
						CHANNELS 3 Yrotation Xrotation Zrotation
						JOINT Head
						{
							OFFSET -0.000000 0.040101 7.802319
							CHANNELS 3 Yrotation Xrotation Zrotation
							End Site
							{
								OFFSET -0.000000 0.020947 14.853096
							}
						}
					}
					JOINT RightCollar
					{
						OFFSET 2.894404 0.000001 6.791374
						CHANNELS 3 Yrotation Xrotation Zrotation
						JOINT RightShoulder
						{
							OFFSET 13.574684 0.000001 0.000000
							CHANNELS 3 Yrotation Xrotation Zrotation
							JOINT RightElbow
							{
								OFFSET 23.923903 0.000002 0.000000
								CHANNELS 3 Yrotation Xrotation Zrotation
								JOINT RightWrist
								{
									OFFSET 19.846718 0.012767 0.000000
									CHANNELS 3 Yrotation Xrotation Zrotation
									End Site
									{
										OFFSET 14.973145 0.000001 0.000000
									}
								}
							}
						}
					}
					JOINT LeftCollar
					{
						OFFSET -2.894404 0.000001 6.791374
						CHANNELS 3 Yrotation Xrotation Zrotation
						JOINT LeftShoulder
						{
							OFFSET -13.574684 -0.000001 0.000000
							CHANNELS 3 Yrotation Xrotation Zrotation
							JOINT LeftElbow
							{
								OFFSET -23.923903 -0.000002 0.000000
								CHANNELS 3 Yrotation Xrotation Zrotation
								JOINT LeftWrist
								{
									OFFSET -19.846718 0.012763 0.000000
									CHANNELS 3 Yrotation Xrotation Zrotation
									End Site
									{
										OFFSET -14.973145 -0.000001 0.000000
									}
								}
							}
						}
					}
				}
			}
		}
	}
	JOINT RightHip
	{
		OFFSET 9.469263 0.004643 0.045487
		CHANNELS 3 Yrotation Xrotation Zrotation
		JOINT RightKnee
		{
			OFFSET 0.000000 0.002661 -40.478676
			CHANNELS 3 Yrotation Xrotation Zrotation
			JOINT RightAnkle
			{
				OFFSET 0.000000 0.049106 -35.224068
				CHANNELS 3 Yrotation Xrotation Zrotation
				JOINT RightToe
				{
					OFFSET -0.000001 12.539529 -6.151390
					CHANNELS 3 Yrotation Xrotation Zrotation
					End Site
					{
						OFFSET -0.000001 5.044994 -1.291870
					}
				}
			}
		}
	}
	JOINT LeftHip
	{
		OFFSET -9.469263 0.004641 0.045487
		CHANNELS 3 Yrotation Xrotation Zrotation
		JOINT LeftKnee
		{
			OFFSET 0.000000 0.002661 -40.478676
			CHANNELS 3 Yrotation Xrotation Zrotation
			JOINT LeftAnkle
			{
				OFFSET 0.000000 0.049106 -35.224068
				CHANNELS 3 Yrotation Xrotation Zrotation
				JOINT LeftToe
				{
					OFFSET -0.000001 12.539529 -6.151390
					CHANNELS 3 Yrotation Xrotation Zrotation
					End Site
					{
						OFFSET -0.000001 5.044994 -1.291870
					}
				}
			}
		}
	}
}
MOTION
Frames: 12
Frame Time: 0.016667
10.478416 6.822777 83.067024 -5.430309 -1.993566 -108.475063 -0.293391 -3.576158 0.732541 -0.121230 -1.587452 0.317389 -0.121230 -1.587452 0.317390 -0.090092 -1.190653 0.237713 1.079978 -15.866044 -2.449352 1.116092 6.717371 -4.168791 4.478079 22.473300 -3.796812 33.375327 55.365192 29.396472 29.051622 0.902281 75.176784 -23.235808 21.272631 19.671691 -5.015754 17.648241 -1.833521 -33.752565 52.970658 -29.692092 -21.768530 7.412922 -70.294920 7.622849 42.774726 -17.892529 -0.535941 -6.821778 -3.359134 1.484626 -3.014715 -6.614514 -0.527981 3.643354 2.146422 -0.011970 -0.001794 0.004504 -0.672323 -7.621693 0.509409 0.645429 -1.731697 1.818515 -0.173435 3.764301 1.244088 0.011833 -0.033724 -0.002507 
10.467026 6.835106 83.064674 -5.453004 -2.013743 -108.521324 -0.302155 -3.598369 0.767545 -0.126287 -1.598701 0.335411 -0.126287 -1.598701 0.335410 -0.093832 -1.199096 0.251212 1.105445 -15.835157 -2.466452 1.156516 6.775128 -4.191661 4.371061 22.025572 -3.935702 33.623273 54.998155 29.300385 36.180564 1.639691 76.907930 -17.570742 23.931482 18.075363 -5.039855 17.404415 -1.992487 -34.122563 52.888409 -29.706583 -32.244695 8.212042 -73.694995 3.206584 45.269575 -17.254250 -0.537979 -6.812987 -3.435366 1.483964 -3.052493 -6.525190 -0.524926 3.638833 2.181934 -0.010055 -0.000829 0.003143 -0.674038 -7.620253 0.516936 0.641108 -1.786957 1.819569 -0.150429 3.781453 1.283422 0.000523 -0.023213 -0.003011 
10.455800 6.849653 83.061562 -5.460505 -2.022459 -108.560481 -0.308248 -3.600611 0.808677 -0.128954 -1.599630 0.354456 -0.128954 -1.599630 0.354457 -0.095781 -1.199798 0.265487 1.119544 -15.830275 -2.489944 1.174062 6.784240 -4.230337 4.434134 21.726586 -3.789486 33.423473 54.535413 28.973041 42.506651 2.508918 78.523263 -11.207219 26.540932 15.974477 -4.950496 17.170037 -1.970966 -35.150288 53.027813 -30.468019 -42.973248 8.340516 -76.692854 1.189282 45.280910 -16.352337 -0.548268 -6.789130 -3.496087 1.484348 -3.094261 -6.454543 -0.524014 3.647756 2.216858 -0.003632 -0.005718 0.002140 -0.676295 -7.606380 0.546210 0.629591 -1.822837 1.812434 -0.127722 3.799690 1.295045 -0.005917 -0.026417 -0.002921 
10.447604 6.862092 83.060898 -5.454349 -2.028800 -108.584469 -0.310499 -3.583208 0.827009 -0.130418 -1.591704 0.362899 -0.130419 -1.591704 0.362901 -0.096863 -1.193857 0.271817 1.122271 -15.859508 -2.495229 1.177949 6.729951 -4.238863 4.530790 21.680605 -3.631773 33.506685 54.721724 29.245091 45.238040 2.784352 78.671765 -6.883107 29.198389 14.953495 -4.946788 17.064669 -2.013161 -36.112528 53.565793 -31.431393 -47.600449 8.045630 -77.486877 2.434937 45.148373 -16.167310 -0.545979 -6.762282 -3.507796 1.476239 -3.118513 -6.440176 -0.523212 3.646398 2.222470 0.003867 -0.005605 0.002407 -0.673402 -7.591710 0.563573 0.619821 -1.834538 1.808599 -0.114323 3.803950 1.299961 -0.005825 -0.026790 -0.002043 
10.445159 6.870825 83.064377 -5.445526 -2.033813 -108.598758 -0.319717 -3.562282 0.818740 -0.134986 -1.582542 0.358891 -0.134986 -1.582543 0.358890 -0.100304 -1.186986 0.268801 1.126460 -15.910072 -2.479868 1.192634 6.636392 -4.208172 4.467097 21.793814 -3.761975 34.005067 55.226273 29.804114 42.806384 2.245726 77.575656 -7.908121 30.425470 16.228275 -5.043511 17.256125 -2.147419 -36.073067 53.897542 -31.522774 -44.421413 8.156197 -76.171280 6.021201 42.190092 -17.175656 -0.535101 -6.744764 -3.453645 1.461920 -3.126143 -6.477060 -0.517839 3.636159 2.192299 0.007311 -0.000073 0.002824 -0.666811 -7.588784 0.578607 0.607646 -1.822440 1.814835 -0.109508 3.793853 1.296000 0.000155 -0.022353 -0.001497 
10.447302 6.874888 83.068977 -5.448090 -2.034542 -108.602603 -0.312588 -3.547407 0.780760 -0.132597 -1.576337 0.341323 -0.132597 -1.576337 0.341325 -0.098561 -1.182327 0.255634 1.097802 -15.963986 -2.445694 1.153067 6.536028 -4.154405 4.295728 21.846877 -4.035911 34.309475 55.599622 29.937098 36.480781 1.103257 76.316927 -14.198224 27.448478 17.254846 -5.148851 17.574806 -2.250282 -35.065915 53.664322 -30.744871 -36.796213 8.841660 -73.846332 10.716650 37.626781 -17.703263 -0.536981 -6.741198 -3.364160 1.456611 -3.131875 -6.528718 -0.511695 3.627932 2.163184 0.008025 0.005827 0.002729 -0.666050 -7.603689 0.574284 0.601454 -1.799764 1.837787 -0.118567 3.778856 1.281597 0.010192 -0.016205 -0.000936 
10.449938 6.879574 83.070465 -5.457694 -2.038005 -108.608750 -0.287709 -3.538090 0.746277 -0.122093 -1.572668 0.325012 -0.122093 -1.572668 0.325007 -0.090728 -1.179566 0.243427 1.046572 -16.002633 -2.415909 1.069492 6.463396 -4.117196 4.337912 22.112044 -3.964133 33.642145 55.426954 29.407974 29.080278 0.543506 75.229281 -21.846708 21.878532 18.118998 -4.940476 17.620032 -1.865785 -34.743806 53.363407 -30.613646 -28.753409 8.956318 -71.256208 14.487082 33.475191 -17.480080 -0.543831 -6.743698 -3.264357 1.463324 -3.138828 -6.589927 -0.510820 3.621116 2.144665 0.007554 0.010081 0.002761 -0.666490 -7.624357 0.560147 0.596027 -1.783798 1.864896 -0.124840 3.772961 1.266027 0.016444 -0.014608 -0.000725 
10.449734 6.887917 83.068314 -5.472177 -2.052629 -108.626755 -0.269551 -3.547685 0.739088 -0.113136 -1.576188 0.320667 -0.113136 -1.576187 0.320666 -0.084019 -1.182200 0.240191 1.022599 -16.011174 -2.406303 1.028574 6.447063 -4.107937 4.561966 22.482811 -3.600092 32.571820 55.134482 28.796142 23.020587 0.546269 74.329165 -26.407332 17.989987 19.439666 -4.696467 17.544393 -1.397493 -34.857867 53.270811 -30.723113 -24.012698 8.116820 -69.937271 14.897138 36.576882 -16.092274 -0.549563 -6.754507 -3.210705 1.473205 -3.153250 -6.613323 -0.505571 3.630471 2.144428 0.005729 0.003960 0.003581 -0.663075 -7.637029 0.546433 0.591422 -1.792362 1.884253 -0.120360 3.788532 1.272537 0.015875 -0.026161 -0.000922 
10.445674 6.899951 83.064911 -5.496326 -2.081394 -108.652334 -0.273276 -3.573534 0.748560 -0.114244 -1.587761 0.326474 -0.114244 -1.587761 0.326478 -0.084830 -1.190882 0.244545 1.055721 -15.996848 -2.417377 1.085846 6.474345 -4.116663 4.626373 22.495491 -3.534562 32.511103 55.325591 28.834405 22.546700 0.054497 74.026000 -27.276260 18.161575 20.331093 -4.839646 17.538034 -1.583975 -34.262083 53.277494 -30.097929 -25.348485 7.705309 -70.713351 10.966565 44.569658 -15.329550 -0.547515 -6.759532 -3.225779 1.485535 -3.184208 -6.577483 -0.503995 3.626247 2.152323 0.002401 0.007360 0.003046 -0.657223 -7.649612 0.522388 0.590238 -1.835028 1.902252 -0.104163 3.808272 1.308288 0.008527 -0.021408 -0.001462 
10.438094 6.913031 83.062241 -5.533927 -2.113985 -108.676499 -0.285739 -3.599762 0.771586 -0.118645 -1.599517 0.338187 -0.118645 -1.599517 0.338188 -0.088093 -1.199705 0.253313 1.113570 -15.980416 -2.444964 1.183095 6.505926 -4.147130 4.323488 22.152660 -4.015814 33.500473 55.331561 29.466679 27.115252 -0.015727 74.653496 -24.334897 20.491153 20.145202 -5.108089 17.613987 -2.050618 -33.627928 53.230396 -29.364254 -32.390191 7.883253 -73.041374 5.694616 48.514953 -15.688606 -0.543130 -6.779286 -3.295255 1.486868 -3.220796 -6.496320 -0.498333 3.633723 2.167467 0.001636 0.004232 0.003329 -0.651639 -7.659804 0.491178 0.589697 -1.897556 1.925297 -0.085207 3.838832 1.343553 -0.000417 -0.023799 -0.002594 
10.429982 6.925650 83.059799 -5.573117 -2.136036 -108.692871 -0.286880 -3.606565 0.805277 -0.118886 -1.602505 0.354396 -0.118887 -1.602505 0.354396 -0.088229 -1.201948 0.265467 1.150724 -15.988020 -2.484936 1.237911 6.492217 -4.207943 4.005596 21.572589 -4.402710 34.329801 54.959903 29.905833 33.380012 0.781204 76.114624 -18.987337 22.619785 18.607119 -5.026141 17.420047 -2.004065 -34.418980 53.276285 -29.892681 -41.478417 8.053815 -75.571351 1.586261 47.841514 -16.094989 -0.547885 -6.792787 -3.374187 1.487701 -3.267296 -6.410827 -0.499615 3.647596 2.188414 0.006562 0.000785 0.003126 -0.651325 -7.669075 0.490924 0.583814 -1.956578 1.919378 -0.065384 3.866258 1.362516 -0.006900 -0.024839 -0.003202 
10.422635 6.938612 83.058151 -5.599767 -2.145215 -108.693103 -0.283182 -3.589862 0.838064 -0.117828 -1.594841 0.369602 -0.117828 -1.594841 0.369601 -0.087400 -1.196203 0.276874 1.163183 -16.026863 -2.519968 1.249341 6.419968 -4.268227 4.106655 21.320458 -4.155397 33.998476 54.528887 29.570245 38.699319 1.754066 77.440705 -13.130450 24.554457 16.581119 -4.865146 17.112773 -1.850397 -35.799368 53.667586 -31.133727 -46.980479 8.011976 -76.779147 -0.362070 46.739866 -16.276272 -0.553555 -6.795418 -3.424348 1.483450 -3.305721 -6.365201 -0.504289 3.658833 2.196899 0.014894 -0.001699 0.003416 -0.655210 -7.672113 0.507949 0.575462 -1.992451 1.904277 -0.049539 3.880202 1.356441 -0.008460 -0.025186 -0.003424 
